<?xml version="1.0" encoding="utf-8"?>
<!-- Generator: Adobe Illustrator 22.0.1, SVG Export Plug-In . SVG Version: 6.00 Build 0)  -->
<svg version="1.1" id="Layer_1" xmlns="http://www.w3.org/2000/svg" xmlns:xlink="http://www.w3.org/1999/xlink" x="0px" y="0px"
	 width="222.2px" height="39px" viewBox="0 0 222.2 39" style="enable-background:new 0 0 222.2 39;" xml:space="preserve">
<style type="text/css">
	.logo0{fill:#E65225;}
</style>
<g>
	<path class="logo0" d="M24.7,16.3c0-1.1-0.9-1.7-2.4-1.7h-3.4v3.4h3.4C23.9,17.9,24.7,17.3,24.7,16.3z M28.2,15.6
		c0,2.1-1.4,3.1-2.1,3.5c0.9,0.3,3,1.1,3,4c0,2.9-2.4,4.4-6,4.4h-7.6V11.5h7.5C26.5,11.5,28.2,13.4,28.2,15.6z M25.6,22.7
		c0-1-0.7-1.8-2.6-1.8h-4.1v3.5h4.1C24.6,24.4,25.6,23.8,25.6,22.7z M32.4,11.5h3.5v12.9h8v3.2H32.4V11.5z M52.4,11.3h3.5l6.9,16.2
		h-3.9l-1.5-3.6h-6.8l-1.5,3.6h-3.7L52.4,11.3z M56.3,21L54,15.6L51.8,21H56.3z M80.8,11.5h3.5v7l6.1-7h4.7L88,19.2l7.5,8.3h-4.7
		l-6.4-7.2v7.2h-3.5V11.5z M161.4,11.5h3.5v7l6.1-7h4.7l-7.1,7.8l7.5,8.3h-4.7l-6.4-7.2v7.2h-3.5V11.5z M100.1,21.1h-4.2v-3.2h4.2
		v-4.1h3.3v4.1h4.2v3.2h-4.2v4.1h-3.3V21.1z M127.2,19.5c0,4.5-3.5,8-8.5,8h-6V11.5h6C123.7,11.5,127.2,15,127.2,19.5z M123.5,19.5
		c0-2.8-2-4.8-4.8-4.8h-2.5v9.7h2.5C121.5,24.3,123.5,22.3,123.5,19.5z M178.1,11.5h11.5v3.1h-8v3.2h7.1v3.1h-7.1v3.4h8.1v3.1h-11.6
		V11.5z M130.3,11.5h11.5v3.1h-8v3.2h7.1v3.1h-7.1v3.4h8.1v3.1h-11.6V11.5z M206.1,16.6c0,3.9-2.9,4.9-4,5.2l4.7,5.7h-4.5l-4.2-5.5
		h-1.3v5.5h-3.5V11.5h6.8C203.9,11.5,206.1,13.6,206.1,16.6z M202.5,16.8c0-1.4-1.1-2.1-2.8-2.1h-2.9v4.3h3
		C201.5,18.9,202.5,18.1,202.5,16.8z M144.2,19.5c0-4.2,3.2-8.3,8.7-8.3c2.8,0,4.9,1,5.2,1.2v3.4c-0.3-0.2-2.1-1.3-4.7-1.3
		c-3.5,0-5.5,2.3-5.5,5c0,3,2.2,5.1,5.3,5.1c2.2,0,3.6-1,4-1.3l1.7,2.6c-0.7,0.6-2.5,1.9-6.2,1.9C147.7,27.8,144.2,24,144.2,19.5z
		 M63.6,19.5c0-4.2,3.2-8.3,8.7-8.3c2.8,0,4.9,1,5.2,1.2v3.4c-0.3-0.2-2.1-1.3-4.7-1.3c-3.5,0-5.5,2.3-5.5,5c0,3,2.2,5.1,5.3,5.1
		c2.2,0,3.6-1,4-1.3l1.7,2.6c-0.7,0.6-2.5,1.9-6.2,1.9C67,27.8,63.6,24,63.6,19.5z"/>
	<path class="logo0" d="M217.7,35.7h-0.7v-0.4h1.7v0.4h-0.7v1.8h-0.4V35.7z"/>
	<path class="logo0" d="M219.2,35.4h0.4l0.7,1l0.7-1h0.4v2.2H221V36l-0.7,1h0l-0.7-1v1.5h-0.4V35.4z"/>
	<path class="logo0" d="M206.9,3.8c3.7,0,6.7,3,6.7,6.7v18c0,3.7-3,6.7-6.7,6.7H14.5c-3.7,0-6.7-3-6.7-6.7v-18c0-3.7,3-6.7,6.7-6.7
		H206.9 M206.9,0.2H14.5C8.8,0.2,4.2,4.8,4.2,10.5v18c0,5.7,4.6,10.3,10.3,10.3h192.4c5.7,0,10.3-4.6,10.3-10.3v-18
		C217.1,4.8,212.5,0.2,206.9,0.2L206.9,0.2z"/>
</g>
</svg>
