<?xml version="1.0" encoding="utf-8"?>
<!-- Generator: Adobe Illustrator 22.0.1, SVG Export Plug-In . SVG Version: 6.00 Build 0)  -->
<svg version="1.1" id="Layer_1" xmlns="http://www.w3.org/2000/svg" xmlns:xlink="http://www.w3.org/1999/xlink" x="0px" y="0px"
	 width="189.8px" height="41.4px" viewBox="0 0 189.8 41.4" style="enable-background:new 0 0 189.8 41.4;" xml:space="preserve">
<style type="text/css">
	.logo0{fill:#C8C8C8;}
</style>
<g>
	<path d="M168.3,12.6l11.6-4.2V0H10.3v8.4l11.6,4.2c0.8,0.3,1.4,1.1,1.4,1.9v12.1c0,0.8-0.6,1.7-1.4,1.9l-11.6,4.2v8.4h169.6v-8.4
		l-11.6-4.2c-0.8-0.3-1.4-1.1-1.4-1.9V14.5C166.9,13.7,167.5,12.9,168.3,12.6z"/>
	<path class="logo0" d="M81.3,19.9c0,0.8-0.6,1.7-1.4,1.9L76.8,23l4.5,6.9H74l-3.1-4.7l-4.3,1.6v3.2h-7.3V11.3h19.9
		c1.1,0,2.1,0.9,2.1,2.1V19.9z M66.6,21.4l7.4-2.7v-2.4h-7.4V21.4z"/>
	<path class="logo0" d="M106.1,27.8c0,1.1-0.9,2.1-2.1,2.1H86.1c-1.1,0-2.1-0.9-2.1-2.1V13.4c0-1.1,0.9-2.1,2.1-2.1H104
		c1.1,0,2.1,0.9,2.1,2.1V27.8z M91.4,24.9h7.4v-8.5h-7.4V24.9z"/>
	<path class="logo0" d="M155.6,27.8c0,1.1-0.9,2.1-2.1,2.1h-17.9c-1.1,0-2.1-0.9-2.1-2.1V13.4c0-1.1,0.9-2.1,2.1-2.1h17.9
		c1.1,0,2.1,0.9,2.1,2.1V27.8z M140.9,24.9h7.4v-8.5h-7.4V24.9z"/>
	<path class="logo0" d="M56.5,19.9c0,0.8-0.6,1.7-1.4,1.9l-13.3,4.9v3.2h-7.3V11.3h19.9c1.1,0,2.1,0.9,2.1,2.1V19.9z M41.8,21.4
		l7.4-2.7v-2.4h-7.4V21.4z"/>
	<polygon class="logo0" points="130.8,16.3 123.5,16.3 123.5,29.8 116.2,29.8 116.2,16.3 108.8,16.3 108.8,11.3 130.8,11.3 	"/>
	<path d="M189,1.6c0.6,0.6,1,1.5,1,2.4c0,0.9-0.3,1.8-1,2.4c-0.7,0.7-1.6,1-2.5,1c-0.9,0-1.7-0.4-2.4-1c-0.7-0.7-1-1.5-1-2.4
		c0-0.9,0.4-1.8,1-2.5c0.6-0.6,1.5-1,2.4-1C187.5,0.6,188.4,0.9,189,1.6z M188.5,2.1c-0.5-0.5-1.2-0.8-1.9-0.8
		c-0.7,0-1.4,0.3-1.9,0.8c-0.5,0.5-0.8,1.2-0.8,1.9c0,0.7,0.3,1.4,0.8,1.9c0.5,0.5,1.2,0.8,1.9,0.8c0.7,0,1.4-0.3,1.9-0.8
		c0.5-0.5,0.8-1.2,0.8-1.9C189.3,3.2,189,2.6,188.5,2.1z M188.3,3.1c0,0.5-0.3,0.8-0.7,1l0.8,1.6h-1.3l-0.7-1.4h-0.1v1.4h-1.2V2.1
		h1.5C187.7,2.1,188.3,2.4,188.3,3.1z M186.3,2.8v0.9h0.2c0.4,0,0.5-0.2,0.5-0.4c0-0.3-0.2-0.4-0.6-0.4H186.3z"/>
</g>
</svg>
