<?xml version="1.0" encoding="utf-8"?>
<!-- Generator: Adobe Illustrator 22.0.1, SVG Export Plug-In . SVG Version: 6.00 Build 0)  -->
<svg version="1.1" id="Layer_1" xmlns="http://www.w3.org/2000/svg" xmlns:xlink="http://www.w3.org/1999/xlink" x="0px" y="0px"
	 width="290.3px" height="34.6px" viewBox="0 0 290.3 34.6" style="enable-background:new 0 0 290.3 34.6;" xml:space="preserve">
<style type="text/css">
	.st0{fill:#CE0E2D;}
	.st1{fill:#FFFFFF;}
</style>
<path class="st0" d="M168.3,0.6c1.9,0,2.9,1,2.9,2.9v27.1c0,1.9-1,2.9-2.9,2.9h-27.1c-1.9,0-2.9-1-2.9-2.9V3.5c0-1.9,1-2.9,2.9-2.9
	H168.3z"/>
<path class="st1" d="M154,3.9c-0.5,7.3-5,12-12.5,12.5v1.4c7.5,0.5,12,5.2,12.5,12.5l1.4,0c0.5-7.3,5-12,12.5-12.5v-1.4
	c-7.5-0.5-12-5.2-12.5-12.5H154z"/>
<path class="st1" d="M105,8.4v-5H93.5c-2.5,0-3.9,1.4-3.9,3.9v19.8c0,2.5,1.4,3.9,3.9,3.9H105v-5h-8.7v-6.5h7.3v-4.9h-7.3V8.4H105z"
	/>
<polygon class="st1" points="86.3,3.4 69.4,3.4 69.4,8.6 74.5,8.6 74.5,31 81.2,31 81.2,8.6 86.3,8.6 "/>
<path class="st1" d="M59.9,10.4v3.5c0,1.3-0.7,2-2,2h-3.2V8.4h3.2C59.2,8.4,59.9,9.1,59.9,10.4z M61.8,17.8c3-0.5,4.9-2.4,4.9-6.7
	c0-4.9-2.3-7.8-7.8-7.8H48V31h6.7V20.6h3.4c1.3,0,2,0.7,2,2V31h6.7v-6.1c0-4.2-1.3-6.4-5-6.9V17.8z"/>
<path class="st1" d="M121.2,10.4v3.5c0,1.3-0.7,2-2,2H116V8.4h3.2C120.5,8.4,121.2,9.1,121.2,10.4z M123.1,17.8
	c3-0.5,4.9-2.4,4.9-6.7c0-4.9-2.3-7.8-7.8-7.8h-10.8V31h6.7V20.6h3.4c1.3,0,2,0.7,2,2V31h6.7v-6.1c0-4.2-1.3-6.4-5-6.9V17.8z"/>
<path class="st1" d="M12.2,3.4H1V31h6.7v-8.3h1.9h2.6c4.9,0,7.5-2.3,7.5-9.6C19.6,5.7,17.1,3.4,12.2,3.4z M12.9,15.3
	c0,1.5-0.7,2.3-2.3,2.3H7.7V8.4h2.9c1.6,0,2.3,0.8,2.3,2.3V15.3z"/>
<path class="st1" d="M286.6,31.1c-1.4,0-2.6-1.2-2.6-2.6c0-1.4,1.2-2.6,2.6-2.6c1.4,0,2.6,1.2,2.6,2.6C289.2,30,288,31.1,286.6,31.1
	z M286.6,26.4c-1.2,0-2.1,1-2.1,2.1c0,1.2,0.9,2.1,2.1,2.1c1.2,0,2.1-1,2.1-2.1C288.7,27.4,287.7,26.4,286.6,26.4z M287.9,29.9h-0.6
	l-0.5-1H286v1h-0.5V27h1.4c0.6,0,1,0.4,1,0.9c0,0.4-0.2,0.7-0.6,0.9L287.9,29.9z M286.9,28.4c0.2,0,0.4-0.1,0.4-0.4
	c0-0.3-0.2-0.4-0.4-0.4H286v0.9C286.3,28.4,286.9,28.4,286.9,28.4z"/>
<path class="st1" d="M281.1,8.4v-5h-11.5c-2.5,0-3.9,1.4-3.9,3.9v19.8c0,2.5,1.4,3.9,3.9,3.9h11.5v-5h-8.7v-6.5h7.3v-4.9h-7.3V8.4
	H281.1z"/>
<path class="st1" d="M247.8,27.1c0,2.5,1.4,3.9,3.9,3.9h10.8v-5.2h-8V3.4h-6.7V27.1z"/>
<path class="st1" d="M238.5,16.5c3.2-0.5,4.7-2.2,4.7-6.1c0-4.7-2.1-6.9-7.6-6.9h-10.6V31h11.2c5.3,0,7.7-2.4,7.7-7.5
	c0-4.4-1.5-6.5-5.3-6.9V16.5z M236.7,10.1v2.5c0,1.3-0.7,2-2,2h-3.3V8.1h3.3C236,8.1,236.7,8.7,236.7,10.1z M237.1,24.1
	c0,1.3-0.7,2-2,2h-3.7v-7h3.7c1.3,0,2,0.7,2,2V24.1z"/>
<path class="st1" d="M197,25.6h-6.1c-1.8,0-2.8-0.9-2.8-2.8V11.5c0-1.9,1-2.8,2.8-2.8h5.9V3.4h-6.6c-6.6,0-9.2,2.5-9.2,12.7v2.2
	c0,10.2,2.5,12.7,9.2,12.7h6.7V25.6z"/>
<path class="st1" d="M32.3,26.1c-1.6,0-2.3-0.8-2.3-2.3V10.5c0-1.5,0.7-2.3,2.3-2.3h1.9c1.6,0,2.3,0.8,2.3,2.3v13.3
	c0,1.5-0.7,2.3-2.3,2.3H32.3z M43.2,10.2c0-2.2-0.6-3.9-1.8-5.1c-1.3-1.3-2.7-1.9-8.1-1.9c-5.4,0-6.8,0.6-8.1,1.9
	C24,6.3,23.4,8,23.4,10.2v14c0,2.2,0.6,3.9,1.8,5.1c1.3,1.3,2.7,1.9,8.1,1.9c5.4,0,6.8-0.6,8.1-1.9c1.2-1.2,1.8-2.9,1.8-5.1V10.2z"
	/>
<path class="st1" d="M213.2,18.2h-5.6v-7.9c0-1.3,0.7-2,2-2h1.5c1.3,0,2,0.7,2,2V18.2z M219.9,10.2c0-2.2-0.6-3.9-1.8-5.1
	c-1.3-1.3-2.7-1.9-7.7-1.9c-5,0-6.4,0.6-7.7,1.9c-1.2,1.2-1.8,2.9-1.8,5.1V31h6.7V23h5.6V31h6.7V10.2z"/>
</svg>
