<?xml version="1.0" encoding="utf-8"?>
<!-- Generator: Adobe Illustrator 22.0.1, SVG Export Plug-In . SVG Version: 6.00 Build 0)  -->
<svg version="1.1" id="Layer_1" xmlns="http://www.w3.org/2000/svg" xmlns:xlink="http://www.w3.org/1999/xlink" x="0px" y="0px"
	 width="260px" height="40px" viewBox="0 0 260 40" style="enable-background:new 0 0 260 40;" xml:space="preserve">
<g>
	<path d="M1.9,29.4c2.6,1.4,6.6,2.8,11.3,2.8c3.3,0,7-0.6,7-3.6c0-6.9-19.4-2.9-19.4-17C0.8,2.4,9.3,0,17.1,0c5,0,8.8,0.9,11.8,1.8
		l-1,8.3c-2.7-1.1-6.1-2.2-10-2.2c-2.6,0-6.6,0.2-6.6,3.5c0,6.1,19.5,2.9,19.5,16.4c0,10-9,12.3-17.6,12.3C8,40,3.3,39,0.7,38.1
		L1.9,29.4z"/>
	<polygon points="65.9,0.7 33.5,0.7 33.5,8.6 44.5,8.6 44.5,39.3 54.8,39.3 54.8,8.6 65.9,8.6 	"/>
	<polygon points="247.7,0.7 240.2,16.2 232.7,0.7 220.9,0.7 235.1,24.7 235.1,39.3 245.4,39.3 245.4,24.7 259.5,0.7 	"/>
	<polygon points="110.1,0.7 110.1,39.3 120,39.3 120,18.5 136.7,39.3 145.1,39.3 145.1,33.5 118.6,0.7 	"/>
	<polygon points="145.1,20.2 145.1,0.7 129.4,0.7 	"/>
	<polygon points="198.6,23.7 214.8,23.7 214.8,16 198.6,16 198.6,8.3 216.4,8.3 216.4,0.7 188.1,0.7 188.1,39.3 217,39.3 217,31.6 
		198.6,31.6 	"/>
	<polygon points="165,0.7 154.5,0.7 154.5,39.3 181.9,39.3 181.9,31.3 165,31.3 	"/>
	<path d="M93.7,39.3h10.8L90.1,0.7H78.2L64.1,39.3h10l2.6-7.7h14.4L93.7,39.3z M79.1,24.3l5-15.5l4.8,15.5H79.1z"/>
	<g>
		<path d="M253.4,31.8c2.1,0,3.8,1.6,3.8,3.7c0,2.1-1.7,3.7-3.8,3.7c-2.1,0-3.8-1.7-3.8-3.7C249.5,33.5,251.2,31.8,253.4,31.8
			L253.4,31.8z M253.3,32.6c-1.6,0-2.9,1.3-2.9,3c0,1.7,1.2,3,2.9,3c1.6,0,2.8-1.3,2.8-2.9C256.2,33.9,255,32.6,253.3,32.6
			L253.3,32.6z M252.8,37.5h-0.9v-3.7c0.3,0,0.8-0.1,1.4-0.1c0.7,0,1,0.1,1.3,0.3c0.2,0.2,0.4,0.4,0.4,0.8c0,0.5-0.3,0.7-0.8,0.9v0
			c0.4,0.1,0.5,0.4,0.7,0.9c0.1,0.6,0.2,0.8,0.3,0.9h-0.9c-0.1-0.1-0.2-0.5-0.3-0.9c-0.1-0.4-0.3-0.6-0.8-0.6h-0.4V37.5z
			 M252.8,35.4h0.4c0.5,0,0.9-0.2,0.9-0.5c0-0.3-0.3-0.6-0.8-0.6c-0.2,0-0.4,0-0.5,0V35.4z"/>
	</g>
</g>
</svg>
