<?xml version="1.0" encoding="utf-8"?>
<!-- Generator: Adobe Illustrator 22.0.1, SVG Export Plug-In . SVG Version: 6.00 Build 0)  -->
<svg version="1.1" id="Layer_1" xmlns="http://www.w3.org/2000/svg" xmlns:xlink="http://www.w3.org/1999/xlink" x="0px" y="0px"
	 width="550px" height="13.8px" viewBox="0 0 550 13.8" style="enable-background:new 0 0 550 13.8;" xml:space="preserve">
<style type="text/css">
	.st0{fill:#9E9E9E;}
</style>
<g>
	<polygon id="XMLID_44_" class="st0" points="25.1,13.6 7.4,13.6 16.2,-1 33.9,-1 	"/>
	<polygon id="XMLID_46_" class="st0" points="61.4,13.6 43.7,13.6 52.6,-1 70.3,-1 	"/>
	<polygon id="XMLID_47_" class="st0" points="97.8,13.6 80.1,13.6 88.9,-1 106.6,-1 	"/>
	<polygon id="XMLID_48_" class="st0" points="134.1,13.6 116.5,13.6 125.3,-1 143,-1 	"/>
	<polygon id="XMLID_49_" class="st0" points="170.5,13.6 152.8,13.6 161.7,-1 179.3,-1 	"/>
	<polygon id="XMLID_50_" class="st0" points="206.8,13.6 189.2,13.6 198,-1 215.7,-1 	"/>
	<polygon id="XMLID_51_" class="st0" points="243.2,13.6 225.5,13.6 234.4,-1 252,-1 	"/>
	<polygon id="XMLID_52_" class="st0" points="279.6,13.6 261.9,13.6 270.7,-1 288.4,-1 	"/>
	<polygon id="XMLID_8_" class="st0" points="316.6,13.6 298.9,13.6 307.8,-1 325.5,-1 	"/>
	<polygon id="XMLID_7_" class="st0" points="353,13.6 335.3,13.6 344.1,-1 361.8,-1 	"/>
	<polygon id="XMLID_6_" class="st0" points="389.3,13.6 371.7,13.6 380.5,-1 398.2,-1 	"/>
	<polygon id="XMLID_5_" class="st0" points="425.7,13.6 408,13.6 416.9,-1 434.5,-1 	"/>
	<polygon id="XMLID_4_" class="st0" points="462.1,13.6 444.4,13.6 453.2,-1 470.9,-1 	"/>
	<polygon id="XMLID_3_" class="st0" points="498.4,13.6 480.7,13.6 489.6,-1 507.3,-1 	"/>
	<polygon id="XMLID_2_" class="st0" points="534.8,13.6 517.1,13.6 525.9,-1 543.6,-1 	"/>
</g>
</svg>
