<?xml version="1.0" encoding="utf-8"?>
<!-- Generator: Adobe Illustrator 22.0.1, SVG Export Plug-In . SVG Version: 6.00 Build 0)  -->
<svg version="1.1" id="Layer_1" xmlns="http://www.w3.org/2000/svg" xmlns:xlink="http://www.w3.org/1999/xlink" x="0px" y="0px"
	 width="175.3px" height="39.5px" viewBox="0 0 175.3 39.5" style="enable-background:new 0 0 175.3 39.5;" xml:space="preserve">
<style type="text/css">
	.st0{fill:#FFC629;}
</style>
<g>
	<g>
		<rect x="8.7" y="0" class="st0" width="12.2" height="39.4"/>
		<rect x="115.4" y="0" class="st0" width="12.2" height="39.4"/>
		<polygon class="st0" points="155.9,20.8 155.9,0 165.7,0 165.7,39.4 155.9,39.4 141.8,16.5 141.8,16.5 141.8,39.4 132,39.4 132,0 
			143.4,0 155.9,20.8 		"/>
		<polygon class="st0" points="102.3,0 96.9,22.7 96.8,22.7 92.1,0 83,0 78.4,22.7 78.3,22.7 72.8,0 61.4,0 72,39.4 82.5,39.4 
			87.6,18 92.6,39.4 103.2,39.4 113.7,0 		"/>
		<path class="st0" d="M171.3,32.1c2,0,3.6,1.6,3.6,3.7c0,2-1.7,3.6-3.6,3.6c-2,0-3.7-1.6-3.7-3.6C167.7,33.7,169.3,32.1,171.3,32.1
			z M171.3,38.5c1.4,0,2.7-1.2,2.7-2.7c0-1.5-1.2-2.7-2.7-2.7c-1.5,0-2.7,1.2-2.7,2.7C168.7,37.3,169.9,38.5,171.3,38.5z
			 M169.9,33.7h1.4c0.5,0,1.5,0,1.5,1.2c0,0.7-0.4,1-0.6,1l0.8,1.8H172l-0.6-1.6h-0.5v1.6h-1V33.7z M170.9,35.5h0.4
			c0.4,0,0.5-0.3,0.5-0.6c0-0.5-0.4-0.5-0.6-0.5h-0.4V35.5z"/>
		<path class="st0" d="M55.8,24.5l6.9,14.9H49.8L44,27.2h-6.4v12.2H25.4V0c0,0,20.2,0,21.4,0c1.3,0,2.8,0.1,3,0.1
			c6.9,0.4,12.3,6.1,12.3,13.1C62.1,18,59.6,22.2,55.8,24.5L55.8,24.5z M44,18.8c2.9,0,5.2-2.3,5.2-5.2S46.9,8.4,44,8.4l-6.4,0v10.4
			L44,18.8z"/>
	</g>
</g>
</svg>
