<?xml version="1.0" encoding="utf-8"?>
<!-- Generator: Adobe Illustrator 22.0.1, SVG Export Plug-In . SVG Version: 6.00 Build 0)  -->
<svg version="1.1" id="Layer_1" xmlns="http://www.w3.org/2000/svg" xmlns:xlink="http://www.w3.org/1999/xlink" x="0px" y="0px"
	 width="212px" height="40px" viewBox="0 0 212 40" style="enable-background:new 0 0 212 40;" xml:space="preserve">
<style type="text/css">
	.st0{fill:#939598;}
	.st1{fill:#FFD20B;}
	.st2{fill:#FFFFFF;}
</style>
<g>
	<polygon class="st0" points="6,14.1 6,25.8 28.8,25.8 26.8,14.1 	"/>
	<polygon class="st1" points="6,28.3 6,40 31.3,40 29.3,28.3 	"/>
	<g>
		<path class="st2" d="M201.9,1.6c-0.2-1.5-0.4-1.6-1.7-1.6h-92.4v5.5l94.4,0L201.9,1.6z"/>
		<g>
			<path class="st2" d="M74.2,10.1v23.2h1.7V40H63v-6.7h1.7V16.7H63v-6.7H74.2z"/>
			<path class="st2" d="M107.8,10.1h30.3c2.6,0,3.5,0,6.2,2.9c2.7,2.9,2.7,3.4,2.8,5.3v15.1h1.6V40h-11v-20c0-3-1.1-3.2-3.4-3.2H133
				V40h-9.4V19.6c0-2.2-0.4-2.8-3.4-2.8h-1.3V40h-11.1v-6.7h1.7V16.7h-1.7V10.1z"/>
			<path class="st2" d="M177.8,33.3V40h-17.9c-2.7,0-3,0-5.6-2.3c-2.5-2.2-2.5-2.6-2.5-5.4V28c0-3.7,0.4-4.3,4.7-5.1l9.9-2v-1.2
				c0-2.6-0.5-3.4-3.3-3.4c-1.5,0-1.6,0.1-1.9,1.4l-0.6,2h-8l1.1-9.7h13.5c1.5,0,2.2,0,2.9,0.2c1.1,0.4,3.9,3.1,5.1,4.6
				c0.9,1.3,1,1.6,1,4.6v13.9H177.8z M163.1,27.5c-1.2,0.3-1.9,0.5-1.9,1.9c0,2.6,0,2.8,0.4,3.4c0.3,0.5,0.9,0.8,2.9,0.8h2.1v-6.9
				L163.1,27.5z"/>
			<path class="st2" d="M180.6,10.1h18.3c3.7,0.1,3.8,0.2,4.2,4l0.9,9.6h-8l-0.6-4.5c-0.3-2.2-0.6-2.4-2.3-2.4h-1.4v16.6h1.6V40
				h-12.6v-6.7h1.6V16.7h-1.6V10.1z"/>
		</g>
		<g>
			<path class="st2" d="M196.6,36.5v-1.1h2.6v1.1h-0.7v3.5h-1.2v-3.5H196.6z"/>
			<path class="st2" d="M199.6,39.9v-4.6h1.8l0.3,1.9c0,0,0,0.1,0.1,0.6l0,0.2l0,0.2l0-0.2l0-0.2c0-0.5,0-0.5,0.1-0.6l0.3-1.9h1.8
				v4.6h-1.1v-2.2l0-0.7l0-0.2l0-0.4l0,0.3l-0.1,0.4c0,0.3-0.1,0.5-0.1,0.7l-0.4,2.2h-1.1l-0.4-2.2l0-0.1l-0.1-0.6l-0.1-0.4l0-0.3
				c0,0.2,0,0.4,0,0.7l0,0.7v2.2H199.6z"/>
		</g>
		<path class="st2" d="M105.1,0v5.5h-1.7v27.8h1.7v6.6H88.1c-2.6,0-3.3,0-6.2-2.8c-2.7-2.6-2.8-3-2.8-6.1V18.9c0-1.1,0-2,0.3-2.8
			c0.5-1.5,3.2-3.9,4.5-4.9c1.4-1.1,1.6-1.2,4.2-1.2h5.7V0H105.1z M93.8,16.4h-2.4c-2.4,0-2.7,1.1-2.7,3.9v10.2c0,1.5,0.1,2,0.8,2.7
			c0.6,0.5,0.9,0.5,4.4,0.5V16.4z"/>
		<polygon class="st2" points="91.1,0 49.6,0 49.5,0 44.7,32 39.9,0 28.8,0 35.9,40 53.6,40 59.6,5.5 91.1,5.5 		"/>
	</g>
	<polygon class="st2" points="26.3,11.7 24.3,0 6,0 6,0 6,11.7 26.4,11.7 	"/>
</g>
</svg>
