<?xml version="1.0" encoding="utf-8"?>
<!-- Generator: Adobe Illustrator 22.0.1, SVG Export Plug-In . SVG Version: 6.00 Build 0)  -->
<svg version="1.1" id="Layer_1" xmlns="http://www.w3.org/2000/svg" xmlns:xlink="http://www.w3.org/1999/xlink" x="0px" y="0px"
	 width="189.9px" height="46px" viewBox="0 0 189.9 46" style="enable-background:new 0 0 189.9 46;" xml:space="preserve">
<g>
	<rect width="190" height="3.6"/>
	<rect y="42.4" width="190" height="3.6"/>
	<polygon points="161.2,5.4 190,5.4 190,15.4 182.2,15.4 182.2,40.5 168.9,40.5 168.9,15.4 161.2,15.4 	"/>
	<polygon points="141.3,5.4 141.3,40.5 165.4,40.5 165.4,30 154.5,30 154.5,5.4 	"/>
	<path d="M113.3,5.4h14.5l11.2,35.1H126l-1.3-5.3h-8.1l-1.2,5.3H102L113.3,5.4z M118.4,27.3h4.5l-2.2-10.2L118.4,27.3z"/>
	<polyline points="108.2,5.4 95.3,5.4 91.8,22.5 87.8,5.4 76.4,5.4 72.8,22.5 69.2,5.4 56.3,5.4 65.9,40.5 77.9,40.5 81.9,23.4 
		86.1,40.5 98.3,40.5 108.2,5.4 	"/>
	<polygon points="36.7,12.9 55.9,12.9 55.9,20.1 46.5,20.1 46.5,23.1 54.6,23.1 54.6,30.3 46.5,30.3 46.5,33.3 55.9,33.3 55.9,40.5 
		36.7,40.5 	"/>
	<path d="M0,40.5V5.4h16.4c9.7,0,17.4,5.3,17.4,17.6c0,12-7.4,17.5-17.5,17.5H0z M13.5,30c4.2,0,6.9-1.7,6.9-7
		c0-5.9-2.7-7.4-6.9-7.4h-1V30H13.5z"/>
	<path d="M184,37.5c0-1.7,1.3-2.8,2.9-2.8s2.9,1.2,2.9,2.8s-1.3,2.8-2.9,2.8C185.3,40.5,184,39.2,184,37.5z M186.9,40
		c1.3,0,2.3-1,2.3-2.4c0-1.3-1-2.4-2.3-2.4c-1.3,0-2.4,1-2.4,2.4C184.5,39,185.6,40,186.9,40z M186.4,37.9h0.5l0.6,1h0.7l-0.7-1.1
		c0.5-0.1,0.9-0.4,0.9-1c0-0.5-0.4-0.9-1.2-0.9h-1.3V39h0.6L186.4,37.9L186.4,37.9z M186.4,37.4v-1h0.6c0.4,0,0.8,0,0.8,0.5
		c0,0.5-0.3,0.5-0.8,0.5C187,37.4,186.4,37.4,186.4,37.4z"/>
</g>
</svg>
