<?xml version="1.0" encoding="utf-8"?>
<!-- Generator: Adobe Illustrator 22.0.1, SVG Export Plug-In . SVG Version: 6.00 Build 0)  -->
<svg version="1.1" id="Layer_1" xmlns="http://www.w3.org/2000/svg" xmlns:xlink="http://www.w3.org/1999/xlink" x="0px" y="0px"
	 width="550px" height="300px" viewBox="0 0 550 300" style="enable-background:new 0 0 550 300;" xml:space="preserve">
<style type="text/css">
	.st0{fill:#5E5F5F;}
	.st1{fill:#9E9E9E;}
</style>
<g>
	<path class="st0" d="M186.1,185.5v23h-29.5v50.9h-24.6v-50.9H36.6v-25.2l99.1-141.5h20.9v143.6H186.1z M132.1,79h-0.6L59,185.5h73
		V79z"/>
	<path class="st0" d="M205.3,127.8c0.4-8.6,1.4-17,3.1-25.2c1.6-8.2,4-16,7.1-23.3c3.1-7.4,7.3-13.8,12.6-19.3
		c5.3-5.5,12-9.9,20.1-13.2c8.1-3.3,17.7-4.9,29-4.9c11.3,0,20.9,1.6,29,4.9c8.1,3.3,14.8,7.7,20.1,13.2c5.3,5.5,9.5,12,12.6,19.3
		c3.1,7.4,5.4,15.1,7.1,23.3c1.6,8.2,2.7,16.6,3.1,25.2c0.4,8.6,0.6,16.9,0.6,24.9c0,8-0.2,16.3-0.6,24.9c-0.4,8.6-1.4,17-3.1,25.2
		c-1.6,8.2-4,15.9-7.1,23.2c-3.1,7.3-7.3,13.7-12.6,19.2c-5.3,5.5-12,9.9-20,13c-8,3.2-17.7,4.8-29.2,4.8c-11.3,0-20.9-1.6-29-4.8
		c-8.1-3.2-14.8-7.5-20.1-13c-5.3-5.5-9.5-11.9-12.6-19.2c-3.1-7.3-5.4-15-7.1-23.2c-1.6-8.2-2.7-16.6-3.1-25.2
		c-0.4-8.6-0.6-16.9-0.6-24.9C204.6,144.7,204.8,136.4,205.3,127.8z M233,179.8c0.5,10.1,2.1,19.6,4.9,28.5
		c2.8,8.9,7.2,16.4,13.4,22.6c6.1,6.1,14.7,9.2,25.8,9.2c11,0,19.6-3.1,25.8-9.2c6.1-6.1,10.6-13.7,13.4-22.6
		c2.8-8.9,4.4-18.4,4.9-28.5c0.5-10.1,0.8-19.3,0.8-27.5c0-5.3-0.1-11.2-0.2-17.6c-0.1-6.4-0.6-12.9-1.5-19.3
		c-0.9-6.4-2.3-12.7-4-18.9c-1.7-6.1-4.3-11.5-7.7-16.1c-3.4-4.6-7.6-8.3-12.7-11.2c-5.1-2.9-11.4-4.3-18.7-4.3
		c-7.4,0-13.6,1.4-18.7,4.3c-5.1,2.9-9.4,6.6-12.7,11.2c-3.4,4.6-5.9,10-7.7,16.1c-1.7,6.1-3.1,12.4-4,18.9
		c-0.9,6.4-1.4,12.9-1.5,19.3c-0.1,6.4-0.2,12.3-0.2,17.6C232.3,160.5,232.5,169.7,233,179.8z"/>
	<path class="st0" d="M515.6,185.5v23h-29.5v50.9h-24.6v-50.9h-95.5v-25.2l99.1-141.5h20.9v143.6H515.6z M461.5,79h-0.6l-72.4,106.5
		h73V79z"/>
</g>
<g>
	<polygon id="XMLID_44_" class="st1" points="25.1,299.8 7.4,299.8 16.2,285.2 33.9,285.2 	"/>
	<polygon id="XMLID_46_" class="st1" points="61.4,299.8 43.7,299.8 52.6,285.2 70.3,285.2 	"/>
	<polygon id="XMLID_47_" class="st1" points="97.8,299.8 80.1,299.8 88.9,285.2 106.6,285.2 	"/>
	<polygon id="XMLID_48_" class="st1" points="134.1,299.8 116.5,299.8 125.3,285.2 143,285.2 	"/>
	<polygon id="XMLID_49_" class="st1" points="170.5,299.8 152.8,299.8 161.7,285.2 179.3,285.2 	"/>
	<polygon id="XMLID_50_" class="st1" points="206.8,299.8 189.2,299.8 198,285.2 215.7,285.2 	"/>
	<polygon id="XMLID_51_" class="st1" points="243.2,299.8 225.5,299.8 234.4,285.2 252,285.2 	"/>
	<polygon id="XMLID_52_" class="st1" points="279.6,299.8 261.9,299.8 270.7,285.2 288.4,285.2 	"/>
	<polygon id="XMLID_8_" class="st1" points="316.6,299.8 298.9,299.8 307.8,285.2 325.5,285.2 	"/>
	<polygon id="XMLID_7_" class="st1" points="353,299.8 335.3,299.8 344.1,285.2 361.8,285.2 	"/>
	<polygon id="XMLID_6_" class="st1" points="389.3,299.8 371.7,299.8 380.5,285.2 398.2,285.2 	"/>
	<polygon id="XMLID_5_" class="st1" points="425.7,299.8 408,299.8 416.9,285.2 434.5,285.2 	"/>
	<polygon id="XMLID_4_" class="st1" points="462.1,299.8 444.4,299.8 453.2,285.2 470.9,285.2 	"/>
	<polygon id="XMLID_3_" class="st1" points="498.4,299.8 480.7,299.8 489.6,285.2 507.3,285.2 	"/>
	<polygon id="XMLID_2_" class="st1" points="534.8,299.8 517.1,299.8 525.9,285.2 543.6,285.2 	"/>
</g>
<g>
	<polygon id="XMLID_30_" class="st1" points="25.1,15.1 7.4,15.1 16.2,0.4 33.9,0.4 	"/>
	<polygon id="XMLID_29_" class="st1" points="61.4,15.1 43.7,15.1 52.6,0.4 70.3,0.4 	"/>
	<polygon id="XMLID_28_" class="st1" points="97.8,15.1 80.1,15.1 88.9,0.4 106.6,0.4 	"/>
	<polygon id="XMLID_27_" class="st1" points="134.1,15.1 116.5,15.1 125.3,0.4 143,0.4 	"/>
	<polygon id="XMLID_26_" class="st1" points="170.5,15.1 152.8,15.1 161.7,0.4 179.3,0.4 	"/>
	<polygon id="XMLID_25_" class="st1" points="206.8,15.1 189.2,15.1 198,0.4 215.7,0.4 	"/>
	<polygon id="XMLID_24_" class="st1" points="243.2,15.1 225.5,15.1 234.4,0.4 252,0.4 	"/>
	<polygon id="XMLID_23_" class="st1" points="279.6,15.1 261.9,15.1 270.7,0.4 288.4,0.4 	"/>
	<polygon id="XMLID_19_" class="st1" points="316.6,15.1 298.9,15.1 307.8,0.4 325.5,0.4 	"/>
	<polygon id="XMLID_18_" class="st1" points="353,15.1 335.3,15.1 344.1,0.4 361.8,0.4 	"/>
	<polygon id="XMLID_17_" class="st1" points="389.3,15.1 371.7,15.1 380.5,0.4 398.2,0.4 	"/>
	<polygon id="XMLID_16_" class="st1" points="425.7,15.1 408,15.1 416.9,0.4 434.5,0.4 	"/>
	<polygon id="XMLID_15_" class="st1" points="462.1,15.1 444.4,15.1 453.2,0.4 470.9,0.4 	"/>
	<polygon id="XMLID_14_" class="st1" points="498.4,15.1 480.7,15.1 489.6,0.4 507.3,0.4 	"/>
	<polygon id="XMLID_12_" class="st1" points="534.8,15.1 517.1,15.1 525.9,0.4 543.6,0.4 	"/>
</g>
</svg>
