<?xml version="1.0" encoding="utf-8"?>
<!-- Generator: Adobe Illustrator 22.0.1, SVG Export Plug-In . SVG Version: 6.00 Build 0)  -->
<svg version="1.1" id="Layer_1" xmlns="http://www.w3.org/2000/svg" xmlns:xlink="http://www.w3.org/1999/xlink" x="0px" y="0px"
	 width="209.6px" height="40px" viewBox="0 0 209.6 40" style="enable-background:new 0 0 209.6 40;" xml:space="preserve">
<style type="text/css">
	.st0{fill:#FFFFFF;}
	.st1{fill:#FFD20B;}
	.st2{fill:#00A6DC;}
	.st3{fill:#1B75BC;}
</style>
<g>
	<g>
		<g>
			<path class="st0" d="M89.3,12.4c-0.3-3-1.8-5.9-7.3-5.9c-4.1,0-6.1,2.3-5.9,4.7c0.1,1.2,0.8,2.3,2.5,2.8
				c2.8,0.7,8.6,1.7,11.9,2.4c9.1,1.8,13,5.2,13,11.1C103.6,39.4,89.2,40,84,40c-11.5,0-19.7-3-20.4-13.1h12.7
				c0.1,3.2,2,6.6,8.2,6.6c3.4,0,6.3-2.2,6.2-5.3c-0.1-1.9-1.1-3-4-3.6c-2.4-0.6-10.5-1.8-12.9-2.3c-6.8-1.5-9.7-5.3-9.7-10
				C64.2,7.4,67.5,0,81.8,0c11.7,0,19.6,3.8,20.3,12.4H89.3 M45,38.3h12.7V1.6H45V38.3z M138.5,1.6h-34.9v6.9h11.1v29.9h12.7V8.4
				h11.1V1.6z M23.1,38.3h18.3v-6.9H23.1V1.6H10.4v36.8H23.1 M161.4,38.3H175L160.8,1.6h-12.8L134,38.3h7.8l2.3-6.2h15.1L161.4,38.3
				z M156.8,25.5h-10.4l5.3-14.2L156.8,25.5z"/>
		</g>
	</g>
	<g>
		<path class="st0" d="M200.5,2.2h-1.2V1.5h3.5v0.8h-1.2v3.2h-1.1V2.2z"/>
		<path class="st0" d="M203.2,5.4V1.5h1.7l0.6,2.7h0l0.6-2.7h1.7v3.9h-1V2.1l0,0L206,5.4h-1l-0.9-3.3l0,0v3.3H203.2z"/>
	</g>
	<polygon class="st1" points="196.5,38.2 196.5,27.8 177.8,27.8 181.8,38.2 	"/>
	<polygon class="st2" points="196.5,11.8 196.5,1.5 167.5,1.5 171.6,11.8 	"/>
	<polygon class="st3" points="196.5,14.6 172.6,14.6 176.7,25 196.5,25 	"/>
</g>
</svg>
