<?xml version="1.0" encoding="utf-8"?>
<!-- Generator: Adobe Illustrator 22.0.1, SVG Export Plug-In . SVG Version: 6.00 Build 0)  -->
<svg version="1.1" id="Layer_1" xmlns="http://www.w3.org/2000/svg" xmlns:xlink="http://www.w3.org/1999/xlink" x="0px" y="0px"
	 width="277.4px" height="46px" viewBox="0 0 277.4 46" style="enable-background:new 0 0 277.4 46;" xml:space="preserve">
<style type="text/css">
	.st0{fill:#003DA6;}
	.st1{fill:#CE0E2D;}
</style>
<g>
	<path class="st0" d="M232.2,37.8c6.9-2.5,3.5-7-8.8-8.7c11.5-4.8-1.6-7-7.5-8.6c11-1.4,16.1-3.7,7.9-7.8c10.8,0.2,13-5,4.8-7.9
		c8.2,0,15.7-4.2,22.5,0.2c1.5-3.5,6-6,6.2-4.7c0.9,7.3,1.9,9.7,3.3,11.9c2.6,1.9,5.2,3.7,5.2,6c0.9,0.5,1.3,1.8,0.3,2.2
		c-0.6,1.4,2.7,3.4,10.3,9.4c0.8,0.6,1.4,1.1,0.8,1.9c-0.6,0.8-2.3,4.4-4.6,3.7c-6.2,7-2.3,1-2.6-0.8c-3.7,5.8-1.3,0.3-1.8-1
		c-2.5-2.1-5.7-4.2-7.5-4.2c-1.1,3.2-0.7,7.1,0,9c1.3,1.2,5.8,0.2,0.9,2.2c2.1,0.7,7.7-0.8,0.8,2.5c0.4,1.1,1.2,3-2.8,2.9
		c-1.2,0-3.9-1.7-4.3-4.6C254.7,37.4,248.9,37.8,232.2,37.8z M252.4,13.9c1,0.7,1.3,0.3,0.7-0.3c-4.3-4.3-6.5-8.2-7.5-8.1
		c-1,0.1-4,4.1-2.3,9c0.2,0.6,0.5,0.6,0.9-0.4c0.3-0.8,0.6-1.1,1.4-1.3c2.2-0.6-0.9-0.4-0.3-2.4C245.6,8.9,247.6,10.6,252.4,13.9z
		 M261.3,19.2c0,1-0.4,2.3-0.8,2.3c-0.4,0-1.5-1.4-1.3-3c-3.5-2.1-4.4-2.2-1.7,1.7c2.7,4,4.9,3.8,4.3,2.1
		C261.1,20.5,264.3,20.3,261.3,19.2z"/>
	<g>
		<path class="st1" d="M0,4.8h17.9l0,24.2h16.5v8.9H0V4.8 M38.2,4.8h34.4v8.6H55.3v3.5h15.9v8.6H55.3v3.7h17.8v8.6H38.2V4.8
			 M77.6,4.8h21.5l9.6,20h0.1v-20h14.5v33.1h-21.5l-9.6-20.2h-0.1v20.2H77.6V4.8 M145.1,21.3c0-7.5,1.9-8.8,4.8-8.8
			c2.9,0,4.8,1.3,4.8,8.8c0,7.6-2.1,8.8-4.8,8.8C147.2,30.1,145.1,29,145.1,21.3 M126.6,21.3c0,10.3,7.8,17.4,23.3,17.4
			c15.6,0,23.3-7.1,23.3-17.4c0-10.3-7.8-17.4-23.3-17.4C134.4,3.9,126.6,11,126.6,21.3 M218.3,37.8l-15.8-16.9l14.6-16.1h-18.7
			l-5.2,6.1l-5.7-6.1h-18.7l15,16.1L168,37.8h18.7l6.4-6.9l6.4,6.9H218.3z"/>
		<path class="st1" d="M210.7,17.9c1.6,0,3,1.2,3,3c0,1.7-1.4,3-3,3c-1.6,0-3-1.3-3-3C207.6,19.2,209,17.9,210.7,17.9z M210.7,25
			c2.2,0,4.1-1.8,4.1-4.1c0-2.2-1.9-4.1-4.1-4.1c-2.3,0-4.1,1.8-4.1,4.1C206.6,23.2,208.4,25,210.7,25z M209.9,21.2h0.6l1,1.8h1.1
			l-1.1-1.8c0.8-0.1,1.2-0.4,1.2-1.2c0-0.5-0.1-0.9-0.5-1.2c-0.3-0.2-0.8-0.2-1.2-0.2h-2.1V23h1V21.2z M209.9,20.4v-1h1
			c0.4,0,0.9,0,0.9,0.5c0,0.4-0.2,0.6-0.7,0.6H209.9z"/>
	</g>
</g>
</svg>
