<?xml version="1.0" encoding="utf-8"?>
<!-- Generator: Adobe Illustrator 22.0.1, SVG Export Plug-In . SVG Version: 6.00 Build 0)  -->
<svg version="1.1" id="Layer_1" xmlns="http://www.w3.org/2000/svg" xmlns:xlink="http://www.w3.org/1999/xlink" x="0px" y="0px"
	 width="219.5px" height="36.4px" viewBox="0 0 219.5 36.4" style="enable-background:new 0 0 219.5 36.4;" xml:space="preserve">
<style type="text/css">
	.logo0{fill:#FFFFFF;}
</style>
<g>
	<path class="logo0" d="M213.6,3.2c0-1.3,1-2.3,2.2-2.3c1.2,0,2.2,1,2.2,2.3c0,1.3-1,2.3-2.2,2.3C214.5,5.5,213.6,4.5,213.6,3.2z
		 M213.1,3.2c0,1.5,1.2,2.7,2.7,2.7c1.5,0,2.7-1.2,2.7-2.7c0-1.5-1.2-2.7-2.7-2.7C214.3,0.5,213.1,1.7,213.1,3.2z M214.7,4.8h0.5
		V3.4h0.5l0.9,1.3h0.5l-0.9-1.4c0.5-0.1,0.8-0.3,0.8-0.9c0-0.6-0.4-0.9-1.1-0.9h-1.2V4.8z M215.2,2h0.6c0.3,0,0.7,0.1,0.7,0.5
		c0,0.5-0.4,0.5-0.8,0.5h-0.5V2z"/>
	<path class="logo0" d="M8.8,21H15c1.4,0,2.3,0.2,2.7,0.6c0.4,0.4,0.7,1.2,0.7,2.3c0,1.1-0.2,1.8-0.6,2.2c-0.4,0.4-1.3,0.6-2.8,0.6
		H8.8V21L8.8,21z M14.7,8.9c1.3,0,2.2,0.2,2.5,0.5c0.3,0.3,0.5,1,0.5,1.9c0,0.9-0.2,1.5-0.6,1.9c-0.4,0.3-1.2,0.5-2.5,0.5H8.8V8.9
		H14.7L14.7,8.9z M0,0.9v34.4h19.4c2.8,0,5-0.8,6.4-2.5c1.4-1.6,2.1-4.1,2.1-7.4c0-2.1-0.3-3.9-1-5.4c-0.7-1.4-1.7-2.5-3-3.1
		c1-0.8,1.7-1.8,2.3-3.1c0.5-1.3,0.8-2.7,0.8-4.4c0-3.1-0.7-5.3-2-6.6c-1.3-1.3-3.5-2-6.7-2H0L0,0.9z"/>
	<path class="logo0" d="M39.9,11.2c1-1.6,2.4-2.4,4.3-2.4c1.9,0,3.3,0.8,4.3,2.4c1,1.6,1.5,3.9,1.5,6.9c0,3-0.5,5.3-1.5,6.9
		c-1,1.6-2.4,2.4-4.3,2.4c-1.9,0-3.3-0.8-4.3-2.4c-1-1.6-1.5-3.9-1.5-6.9C38.4,15.1,38.9,12.8,39.9,11.2L39.9,11.2z M32.8,31.6
		c2.6,3,6.4,4.6,11.4,4.6c5.1,0,8.9-1.5,11.4-4.6c2.6-3,3.8-7.6,3.8-13.5c0-6-1.3-10.5-3.8-13.5C53.1,1.5,49.3,0,44.2,0
		c-5,0-8.8,1.5-11.4,4.6c-2.6,3-3.8,7.6-3.8,13.5C29,24.1,30.3,28.6,32.8,31.6L32.8,31.6z"/>
	<path class="logo0" d="M60.5,24.9l10.6,0c0.1,0.9,0.5,1.6,1.2,2.1c0.7,0.5,1.6,0.7,2.8,0.7c1.2,0,2.1-0.2,2.7-0.6
		c0.6-0.4,0.9-1,0.9-1.8c0-0.7-0.3-1.3-0.8-1.8c-0.5-0.4-1.3-0.8-2.4-1L69,21.3c-2.7-0.5-4.8-1.6-6.1-3.3c-1.4-1.7-2.1-4-2.1-6.9
		c0-3.8,1-6.7,3.1-8.4C66,0.9,69.3,0,73.9,0c4.7,0,8.2,0.9,10.5,2.6c2.3,1.8,3.5,4.5,3.7,8.2H77.9c-0.1-1.1-0.5-1.9-1.3-2.4
		c-0.8-0.5-1.8-0.8-3.2-0.8c-1,0-1.8,0.2-2.3,0.6c-0.6,0.4-0.8,1-0.8,1.7c0,0.7,0.2,1.1,0.7,1.5c0.4,0.3,1.3,0.7,2.7,1l8,1.7
		c2.5,0.5,4.4,1.7,5.6,3.3c1.2,1.7,1.9,3.9,1.9,6.7c0,4.2-1.2,7.3-3.7,9.3c-2.5,2-6.4,3-11.7,3c-4.2,0-7.5-1-9.7-3
		C61.7,31.4,60.6,28.6,60.5,24.9L60.5,24.9z"/>
	<polygon class="logo0" points="97.1,35.3 97.1,9.6 88.9,9.6 88.9,0.9 114.1,0.9 114.1,9.6 105.9,9.6 105.9,35.3 97.1,35.3 	"/>
	<polygon class="logo0" points="115.8,35.3 115.8,0.9 124.6,0.9 124.6,35.3 115.8,35.3 	"/>
	<polygon class="logo0" points="134.6,35.3 134.6,9.6 126.4,9.6 126.4,0.9 151.6,0.9 151.6,9.6 143.4,9.6 143.4,35.3 134.6,35.3 	"/>
	<path class="logo0" d="M171.7,15.4c-0.1-2.1-0.6-3.8-1.5-4.9c-0.8-1.1-2-1.7-3.5-1.7c-1.9,0-3.3,0.8-4.3,2.4c-1,1.6-1.5,3.9-1.5,6.9
		c0,3,0.5,5.3,1.5,6.9c1,1.6,2.4,2.4,4.3,2.4c1.4,0,2.5-0.5,3.3-1.4c0.8-0.9,1.4-2.3,1.7-4.2h10.1c-0.4,4.8-2,8.4-4.5,10.8
		c-2.6,2.4-6.1,3.6-10.6,3.6c-5,0-8.8-1.5-11.4-4.6c-2.6-3-3.8-7.6-3.8-13.5c0-6,1.3-10.5,3.8-13.5c2.6-3,6.4-4.6,11.4-4.6
		c4.7,0,8.4,1.3,10.9,4c2.6,2.6,3.9,6.4,4.1,11.4H171.7L171.7,15.4z"/>
	<polygon class="logo0" points="183.5,35.3 183.5,0.9 192.3,0.9 192.3,12.8 202.3,12.8 202.3,0.9 211.1,0.9 211.1,35.3 202.3,35.3
		202.3,21.4 192.3,21.4 192.3,35.3 183.5,35.3 	"/>
</g>
</svg>
